<meta message track_name name='Kboard 1 (Pno 1)' time=0>
<meta message set_tempo tempo=750000 time=0>
program_change channel=0 program=1 time=0
note_on channel=0 note=64 velocity=88 time=0
note_off channel=0 note=64 velocity=0 time=300
note_on channel=0 note=66 velocity=88 time=0
note_off channel=0 note=66 velocity=0 time=300
note_on channel=0 note=67 velocity=88 time=0
note_off channel=0 note=67 velocity=0 time=300
note_on channel=0 note=69 velocity=88 time=0
note_off channel=0 note=69 velocity=0 time=300
note_on channel=0 note=70 velocity=88 time=0
note_off channel=0 note=70 velocity=0 time=300
note_on channel=0 note=71 velocity=88 time=0
note_on channel=0 note=59 velocity=88 time=300
note_off channel=0 note=71 velocity=0 time=0
note_off channel=0 note=59 velocity=0 time=300
note_on channel=0 note=64 velocity=88 time=0
note_on channel=0 note=36 velocity=88 time=400
note_on channel=0 note=48 velocity=88 time=0
note_on channel=0 note=52 velocity=88 time=0
note_on channel=0 note=57 velocity=88 time=0
note_on channel=0 note=60 velocity=88 time=0
note_off channel=0 note=64 velocity=0 time=0
note_on channel=0 note=64 velocity=95 time=0
note_off channel=0 note=36 velocity=0 time=80
note_off channel=0 note=48 velocity=0 time=0
note_off channel=0 note=52 velocity=0 time=0
note_off channel=0 note=57 velocity=0 time=0
note_off channel=0 note=60 velocity=0 time=0
note_off channel=0 note=64 velocity=0 time=120
note_on channel=0 note=66 velocity=88 time=0
note_on channel=0 note=33 velocity=88 time=100
note_on channel=0 note=45 velocity=88 time=0
note_on channel=0 note=54 velocity=88 time=0
note_on channel=0 note=57 velocity=88 time=0
note_on channel=0 note=60 velocity=88 time=0
note_on channel=0 note=64 velocity=88 time=0
note_off channel=0 note=66 velocity=0 time=0
note_on channel=0 note=66 velocity=95 time=0
note_off channel=0 note=33 velocity=0 time=80
note_off channel=0 note=45 velocity=0 time=0
note_off channel=0 note=54 velocity=0 time=0
note_off channel=0 note=57 velocity=0 time=0
note_off channel=0 note=60 velocity=0 time=0
note_off channel=0 note=64 velocity=0 time=0
note_off channel=0 note=66 velocity=0 time=120
note_on channel=0 note=67 velocity=88 time=0
note_on channel=0 note=40 velocity=88 time=100
note_on channel=0 note=43 velocity=88 time=0
note_on channel=0 note=52 velocity=88 time=0
note_on channel=0 note=55 velocity=88 time=0
note_on channel=0 note=59 velocity=88 time=0
note_on channel=0 note=64 velocity=88 time=0
note_off channel=0 note=67 velocity=0 time=0
note_on channel=0 note=67 velocity=95 time=0
note_off channel=0 note=40 velocity=0 time=80
note_off channel=0 note=43 velocity=0 time=0
note_off channel=0 note=52 velocity=0 time=0
note_off channel=0 note=55 velocity=0 time=0
note_off channel=0 note=59 velocity=0 time=0
note_off channel=0 note=64 velocity=0 time=0
note_off channel=0 note=67 velocity=0 time=120
note_on channel=0 note=69 velocity=88 time=0
note_on channel=0 note=36 velocity=88 time=100
note_on channel=0 note=48 velocity=88 time=0
note_on channel=0 note=52 velocity=88 time=0
note_on channel=0 note=57 velocity=88 time=0
note_on channel=0 note=60 velocity=88 time=0
note_on channel=0 note=64 velocity=88 time=0
note_off channel=0 note=69 velocity=0 time=0
note_on channel=0 note=69 velocity=95 time=0
note_off channel=0 note=36 velocity=0 time=80
note_off channel=0 note=48 velocity=0 time=0
note_off channel=0 note=52 velocity=0 time=0
note_off channel=0 note=57 velocity=0 time=0
note_off channel=0 note=60 velocity=0 time=0
note_off channel=0 note=64 velocity=0 time=0
note_off channel=0 note=69 velocity=0 time=120
note_on channel=0 note=70 velocity=88 time=0
note_on channel=0 note=30 velocity=88 time=100
note_on channel=0 note=42 velocity=88 time=0
note_on channel=0 note=49 velocity=88 time=0
note_on channel=0 note=52 velocity=88 time=0
note_on channel=0 note=58 velocity=88 time=0
note_on channel=0 note=61 velocity=88 time=0
note_on channel=0 note=64 velocity=88 time=0
note_off channel=0 note=70 velocity=0 time=0
note_on channel=0 note=70 velocity=95 time=0
note_off channel=0 note=30 velocity=0 time=80
note_off channel=0 note=42 velocity=0 time=0
note_off channel=0 note=49 velocity=0 time=0
note_off channel=0 note=52 velocity=0 time=0
note_off channel=0 note=58 velocity=0 time=0
note_off channel=0 note=61 velocity=0 time=0
note_off channel=0 note=64 velocity=0 time=0
note_off channel=0 note=70 velocity=0 time=120
note_on channel=0 note=71 velocity=88 time=0
note_on channel=0 note=31 velocity=88 time=100
note_on channel=0 note=43 velocity=88 time=0
note_on channel=0 note=52 velocity=88 time=0
note_on channel=0 note=59 velocity=88 time=0
note_on channel=0 note=64 velocity=88 time=0
note_off channel=0 note=71 velocity=0 time=0
note_on channel=0 note=71 velocity=95 time=0
note_off channel=0 note=31 velocity=0 time=80
note_off channel=0 note=43 velocity=0 time=0
note_off channel=0 note=52 velocity=0 time=0
note_off channel=0 note=59 velocity=0 time=0
note_off channel=0 note=64 velocity=0 time=0
note_on channel=0 note=59 velocity=88 time=120
note_off channel=0 note=71 velocity=0 time=0
note_on channel=0 note=29 velocity=30 time=100
note_on channel=0 note=41 velocity=30 time=0
note_on channel=0 note=47 velocity=30 time=0
note_on channel=0 note=51 velocity=30 time=0
note_on channel=0 note=57 velocity=30 time=0
note_off channel=0 note=59 velocity=0 time=0
note_on channel=0 note=59 velocity=30 time=0
note_off channel=0 note=29 velocity=0 time=80
note_off channel=0 note=41 velocity=0 time=0
note_off channel=0 note=47 velocity=0 time=0
note_off channel=0 note=51 velocity=0 time=0
note_off channel=0 note=57 velocity=0 time=0
note_off channel=0 note=59 velocity=0 time=120
note_on channel=0 note=64 velocity=70 time=0
note_on channel=0 note=28 velocity=53 time=100
note_on channel=0 note=40 velocity=53 time=0
note_on channel=0 note=52 velocity=53 time=0
note_on channel=0 note=56 velocity=53 time=0
note_on channel=0 note=59 velocity=53 time=0
note_off channel=0 note=64 velocity=0 time=0
note_on channel=0 note=64 velocity=59 time=0
note_off channel=0 note=28 velocity=0 time=80
note_off channel=0 note=40 velocity=0 time=0
note_off channel=0 note=52 velocity=0 time=0
note_off channel=0 note=56 velocity=0 time=0
note_off channel=0 note=59 velocity=0 time=0
note_off channel=0 note=64 velocity=0 time=120
note_on channel=0 note=64 velocity=70 time=0
note_on channel=0 note=33 velocity=64 time=100
note_on channel=0 note=45 velocity=64 time=0
note_on channel=0 note=49 velocity=64 time=0
note_on channel=0 note=52 velocity=70 time=0
note_off channel=0 note=33 velocity=0 time=82
note_off channel=0 note=45 velocity=0 time=0
note_off channel=0 note=49 velocity=0 time=0
note_off channel=0 note=52 velocity=0 time=0
note_off channel=0 note=64 velocity=0 time=118
note_on channel=0 note=66 velocity=70 time=0
note_on channel=0 note=33 velocity=64 time=100
note_on channel=0 note=45 velocity=64 time=0
note_on channel=0 note=48 velocity=64 time=0
note_on channel=0 note=54 velocity=70 time=0
note_off channel=0 note=33 velocity=0 time=82
note_off channel=0 note=45 velocity=0 time=0
note_off channel=0 note=48 velocity=0 time=0
note_off channel=0 note=54 velocity=0 time=0
note_off channel=0 note=66 velocity=0 time=118
note_on channel=0 note=67 velocity=70 time=0
note_on channel=0 note=40 velocity=64 time=100
note_on channel=0 note=47 velocity=64 time=0
note_on channel=0 note=52 velocity=64 time=0
note_on channel=0 note=55 velocity=70 time=0
note_off channel=0 note=40 velocity=0 time=82
note_off channel=0 note=47 velocity=0 time=0
note_off channel=0 note=52 velocity=0 time=0
note_off channel=0 note=55 velocity=0 time=0
note_off channel=0 note=67 velocity=0 time=118
note_on channel=0 note=69 velocity=70 time=0
note_on channel=0 note=38 velocity=70 time=100
note_on channel=0 note=50 velocity=70 time=0
note_on channel=0 note=54 velocity=70 time=0
note_on channel=0 note=57 velocity=77 time=0
note_off channel=0 note=38 velocity=0 time=82
note_off channel=0 note=50 velocity=0 time=0
note_off channel=0 note=54 velocity=0 time=0
note_off channel=0 note=57 velocity=0 time=0
note_off channel=0 note=69 velocity=0 time=118
note_on channel=0 note=70 velocity=70 time=0
note_on channel=0 note=36 velocity=70 time=100
note_on channel=0 note=48 velocity=70 time=0
note_on channel=0 note=52 velocity=70 time=0
note_on channel=0 note=55 velocity=70 time=0
note_on channel=0 note=58 velocity=77 time=0
note_off channel=0 note=36 velocity=0 time=82
note_off channel=0 note=48 velocity=0 time=0
note_off channel=0 note=52 velocity=0 time=0
note_off channel=0 note=55 velocity=0 time=0
note_off channel=0 note=58 velocity=0 time=0
note_off channel=0 note=70 velocity=0 time=118
note_on channel=0 note=71 velocity=70 time=0
note_on channel=0 note=35 velocity=70 time=100
note_on channel=0 note=47 velocity=70 time=0
note_on channel=0 note=52 velocity=70 time=0
note_on channel=0 note=55 velocity=70 time=0
note_on channel=0 note=59 velocity=77 time=0
note_off channel=0 note=35 velocity=0 time=82
note_off channel=0 note=47 velocity=0 time=0
note_off channel=0 note=52 velocity=0 time=0
note_off channel=0 note=55 velocity=0 time=0
note_off channel=0 note=59 velocity=0 time=0
note_on channel=0 note=59 velocity=70 time=118
note_off channel=0 note=71 velocity=0 time=0
note_on channel=0 note=35 velocity=70 time=100
note_on channel=0 note=47 velocity=77 time=0
note_off channel=0 note=35 velocity=0 time=82
note_off channel=0 note=47 velocity=0 time=0
note_off channel=0 note=59 velocity=0 time=118
note_on channel=0 note=64 velocity=70 time=0
note_on channel=0 note=40 velocity=70 time=100
note_on channel=0 note=52 velocity=77 time=0
note_off channel=0 note=40 velocity=0 time=82
note_off channel=0 note=52 velocity=0 time=0
note_on channel=0 note=55 velocity=88 time=18
note_off channel=0 note=55 velocity=0 time=70
note_on channel=0 note=36 velocity=88 time=30
note_on channel=0 note=48 velocity=88 time=0
note_on channel=0 note=60 velocity=88 time=0
note_off channel=0 note=64 velocity=0 time=0
note_on channel=0 note=64 velocity=96 time=0
note_on channel=0 note=67 velocity=88 time=0
note_on channel=0 note=72 velocity=88 time=0
note_on channel=0 note=76 velocity=103 time=0
note_off channel=0 note=36 velocity=0 time=10
note_off channel=0 note=48 velocity=0 time=31
note_off channel=0 note=60 velocity=0 time=29
note_off channel=0 note=67 velocity=0 time=0
note_off channel=0 note=72 velocity=0 time=0
note_off channel=0 note=76 velocity=0 time=0
note_on channel=0 note=43 velocity=88 time=30
note_on channel=0 note=55 velocity=88 time=0
note_off channel=0 note=43 velocity=0 time=10
note_off channel=0 note=55 velocity=0 time=31
note_on channel=0 note=48 velocity=88 time=59
note_on channel=0 note=60 velocity=88 time=0
note_off channel=0 note=48 velocity=0 time=10
note_off channel=0 note=60 velocity=0 time=31
note_on channel=0 note=35 velocity=88 time=59
note_on channel=0 note=47 velocity=88 time=0
note_on channel=0 note=59 velocity=88 time=0
note_on channel=0 note=63 velocity=88 time=0
note_off channel=0 note=64 velocity=0 time=0
note_on channel=0 note=66 velocity=96 time=0
note_on channel=0 note=71 velocity=88 time=0
note_on channel=0 note=75 velocity=88 time=0
note_on channel=0 note=78 velocity=103 time=0
note_off channel=0 note=35 velocity=0 time=10
note_off channel=0 note=47 velocity=0 time=31
note_off channel=0 note=59 velocity=0 time=29
note_off channel=0 note=63 velocity=0 time=0
note_off channel=0 note=71 velocity=0 time=0
note_off channel=0 note=75 velocity=0 time=0
note_off channel=0 note=78 velocity=0 time=0
note_on channel=0 note=40 velocity=88 time=230
note_on channel=0 note=52 velocity=88 time=0
note_on channel=0 note=59 velocity=88 time=0
note_on channel=0 note=64 velocity=88 time=0
note_off channel=0 note=66 velocity=0 time=0
note_on channel=0 note=67 velocity=96 time=0
note_on channel=0 note=71 velocity=88 time=0
note_on channel=0 note=76 velocity=88 time=0
note_on channel=0 note=79 velocity=103 time=0
note_off channel=0 note=40 velocity=0 time=10
note_off channel=0 note=52 velocity=0 time=60
note_off channel=0 note=59 velocity=0 time=0
note_off channel=0 note=64 velocity=0 time=0
note_off channel=0 note=71 velocity=0 time=0
note_off channel=0 note=76 velocity=0 time=0
note_off channel=0 note=79 velocity=0 time=0
note_on channel=0 note=47 velocity=88 time=30
note_on channel=0 note=59 velocity=88 time=0
note_off channel=0 note=47 velocity=0 time=10
note_off channel=0 note=59 velocity=0 time=31
note_on channel=0 note=52 velocity=88 time=59
note_on channel=0 note=64 velocity=88 time=0
note_off channel=0 note=52 velocity=0 time=10
note_off channel=0 note=64 velocity=0 time=31
note_on channel=0 note=50 velocity=88 time=59
note_on channel=0 note=62 velocity=88 time=0
note_on channel=0 note=66 velocity=88 time=0
note_off channel=0 note=67 velocity=0 time=0
note_on channel=0 note=69 velocity=96 time=0
note_on channel=0 note=78 velocity=88 time=0
note_on channel=0 note=81 velocity=103 time=0
note_off channel=0 note=50 velocity=0 time=10
note_off channel=0 note=62 velocity=0 time=60
note_off channel=0 note=66 velocity=0 time=0
note_off channel=0 note=78 velocity=0 time=0
note_off channel=0 note=81 velocity=0 time=0
note_on channel=0 note=30 velocity=88 time=230
note_on channel=0 note=42 velocity=88 time=0
note_on channel=0 note=66 velocity=88 time=0
note_off channel=0 note=69 velocity=0 time=0
note_on channel=0 note=70 velocity=96 time=0
note_on channel=0 note=73 velocity=88 time=0
note_on channel=0 note=82 velocity=94 time=0
note_off channel=0 note=30 velocity=0 time=10
note_off channel=0 note=42 velocity=0 time=31
note_off channel=0 note=66 velocity=0 time=29
note_off channel=0 note=73 velocity=0 time=0
note_off channel=0 note=82 velocity=0 time=0
note_on channel=0 note=35 velocity=88 time=30
note_on channel=0 note=47 velocity=88 time=0
note_off channel=0 note=35 velocity=0 time=10
note_off channel=0 note=47 velocity=0 time=31
note_on channel=0 note=42 velocity=88 time=59
note_on channel=0 note=54 velocity=88 time=0
note_off channel=0 note=42 velocity=0 time=10
note_off channel=0 note=54 velocity=0 time=31
note_on channel=0 note=43 velocity=88 time=59
note_on channel=0 note=55 velocity=88 time=0
note_on channel=0 note=64 velocity=88 time=0
note_on channel=0 note=67 velocity=88 time=0
note_off channel=0 note=70 velocity=0 time=0
note_on channel=0 note=71 velocity=96 time=0
note_on channel=0 note=76 velocity=88 time=0
note_on channel=0 note=83 velocity=103 time=0
note_off channel=0 note=43 velocity=0 time=10
note_off channel=0 note=55 velocity=0 time=60
note_off channel=0 note=64 velocity=0 time=0
note_off channel=0 note=67 velocity=0 time=0
note_off channel=0 note=76 velocity=0 time=0
note_off channel=0 note=83 velocity=0 time=0
note_on channel=0 note=35 velocity=88 time=230
note_on channel=0 note=47 velocity=88 time=0
note_on channel=0 note=59 velocity=88 time=0
note_on channel=0 note=63 velocity=88 time=0
note_on channel=0 note=66 velocity=88 time=0
note_on channel=0 note=69 velocity=88 time=0
note_off channel=0 note=71 velocity=0 time=0
note_on channel=0 note=71 velocity=103 time=0
note_off channel=0 note=35 velocity=0 time=10
note_off channel=0 note=47 velocity=0 time=31
note_off channel=0 note=63 velocity=0 time=29
note_off channel=0 note=66 velocity=0 time=0
note_off channel=0 note=69 velocity=0 time=0
note_off channel=0 note=71 velocity=0 time=0
note_on channel=0 note=42 velocity=88 time=30
note_on channel=0 note=54 velocity=88 time=0
note_off channel=0 note=42 velocity=0 time=10
note_off channel=0 note=54 velocity=0 time=31
note_on channel=0 note=47 velocity=88 time=59
note_off channel=0 note=47 velocity=0 time=10
note_on channel=0 note=40 velocity=88 time=90
note_on channel=0 note=52 velocity=88 time=0
note_off channel=0 note=59 velocity=0 time=0
note_on channel=0 note=60 velocity=88 time=0
note_on channel=0 note=64 velocity=96 time=0
note_on channel=0 note=69 velocity=88 time=0
note_on channel=0 note=76 velocity=103 time=0
note_off channel=0 note=60 velocity=0 time=70
note_off channel=0 note=69 velocity=0 time=0
note_off channel=0 note=76 velocity=0 time=0
note_off channel=0 note=40 velocity=0 time=30
note_off channel=0 note=52 velocity=0 time=0
note_on channel=0 note=40 velocity=88 time=200
note_on channel=0 note=52 velocity=88 time=0
note_on channel=0 note=59 velocity=110 time=0
note_off channel=0 note=64 velocity=0 time=0
note_on channel=0 note=55 velocity=69 time=50
note_off channel=0 note=59 velocity=0 time=0
note_on channel=0 note=59 velocity=69 time=0
note_on channel=0 note=28 velocity=88 time=50
note_off channel=0 note=52 velocity=0 time=0
note_off channel=0 note=55 velocity=0 time=0
note_on channel=0 note=64 velocity=110 time=0
note_off channel=0 note=59 velocity=0 time=20
note_on channel=0 note=55 velocity=69 time=30
note_on channel=0 note=59 velocity=69 time=0
note_off channel=0 note=64 velocity=0 time=0
note_on channel=0 note=64 velocity=69 time=0
note_on channel=0 note=71 velocity=110 time=100
note_off channel=0 note=28 velocity=0 time=50
note_off channel=0 note=40 velocity=0 time=0
note_off channel=0 note=55 velocity=0 time=0
note_off channel=0 note=59 velocity=0 time=0
note_off channel=0 note=64 velocity=0 time=0
note_off channel=0 note=71 velocity=0 time=10
<meta message end_of_track time=0>
<meta message track_name name='Kboard 2 (Pn2 1)' time=0>
<meta message set_tempo tempo=750000 time=0>
program_change channel=0 program=1 time=0
note_on channel=0 note=48 velocity=88 time=0
note_on channel=0 note=57 velocity=88 time=0
note_on channel=0 note=60 velocity=88 time=0
note_on channel=0 note=64 velocity=96 time=0
note_off channel=0 note=48 velocity=0 time=255
note_off channel=0 note=57 velocity=0 time=0
note_off channel=0 note=60 velocity=0 time=0
note_off channel=0 note=64 velocity=0 time=0
note_on channel=0 note=45 velocity=90 time=45
note_on channel=0 note=57 velocity=90 time=0
note_on channel=0 note=60 velocity=90 time=0
note_on channel=0 note=66 velocity=98 time=0
note_off channel=0 note=45 velocity=0 time=255
note_off channel=0 note=57 velocity=0 time=0
note_off channel=0 note=60 velocity=0 time=0
note_off channel=0 note=66 velocity=0 time=0
note_on channel=0 note=40 velocity=92 time=45
note_on channel=0 note=55 velocity=92 time=0
note_on channel=0 note=59 velocity=92 time=0
note_on channel=0 note=67 velocity=100 time=0
note_off channel=0 note=40 velocity=0 time=255
note_off channel=0 note=55 velocity=0 time=0
note_off channel=0 note=59 velocity=0 time=0
note_off channel=0 note=67 velocity=0 time=0
note_on channel=0 note=48 velocity=94 time=45
note_on channel=0 note=57 velocity=94 time=0
note_on channel=0 note=64 velocity=94 time=0
note_on channel=0 note=69 velocity=102 time=0
note_off channel=0 note=48 velocity=0 time=270
note_off channel=0 note=57 velocity=0 time=0
note_off channel=0 note=64 velocity=0 time=0
note_off channel=0 note=69 velocity=0 time=0
note_on channel=0 note=42 velocity=96 time=30
note_on channel=0 note=54 velocity=96 time=0
note_on channel=0 note=61 velocity=96 time=0
note_on channel=0 note=64 velocity=96 time=0
note_on channel=0 note=70 velocity=105 time=0
note_off channel=0 note=42 velocity=0 time=270
note_off channel=0 note=54 velocity=0 time=0
note_off channel=0 note=61 velocity=0 time=0
note_off channel=0 note=64 velocity=0 time=0
note_off channel=0 note=70 velocity=0 time=0
note_on channel=0 note=43 velocity=98 time=30
note_on channel=0 note=55 velocity=98 time=0
note_on channel=0 note=59 velocity=98 time=0
note_on channel=0 note=64 velocity=98 time=0
note_on channel=0 note=71 velocity=107 time=0
note_off channel=0 note=43 velocity=0 time=270
note_off channel=0 note=55 velocity=0 time=0
note_off channel=0 note=59 velocity=0 time=0
note_off channel=0 note=64 velocity=0 time=0
note_off channel=0 note=71 velocity=0 time=0
note_on channel=0 note=41 velocity=98 time=30
note_on channel=0 note=51 velocity=98 time=0
note_on channel=0 note=57 velocity=98 time=0
note_on channel=0 note=59 velocity=107 time=0
note_off channel=0 note=41 velocity=0 time=270
note_off channel=0 note=51 velocity=0 time=0
note_off channel=0 note=57 velocity=0 time=0
note_off channel=0 note=59 velocity=0 time=0
note_on channel=0 note=40 velocity=88 time=30
note_on channel=0 note=52 velocity=88 time=0
note_on channel=0 note=56 velocity=88 time=0
note_on channel=0 note=59 velocity=88 time=0
note_on channel=0 note=64 velocity=96 time=0
note_off channel=0 note=40 velocity=0 time=255
note_off channel=0 note=52 velocity=0 time=0
note_off channel=0 note=56 velocity=0 time=0
note_off channel=0 note=59 velocity=0 time=0
note_off channel=0 note=64 velocity=0 time=0
note_on channel=0 note=40 velocity=88 time=45
note_on channel=0 note=52 velocity=88 time=0
note_on channel=0 note=57 velocity=88 time=100
note_on channel=0 note=60 velocity=88 time=0
note_on channel=0 note=64 velocity=96 time=0
note_off channel=0 note=40 velocity=0 time=50
note_off channel=0 note=52 velocity=0 time=0
note_off channel=0 note=57 velocity=0 time=50
note_off channel=0 note=60 velocity=0 time=0
note_off channel=0 note=64 velocity=0 time=12
note_on channel=0 note=40 velocity=88 time=88
note_on channel=0 note=52 velocity=88 time=0
note_on channel=0 note=57 velocity=88 time=100
note_on channel=0 note=60 velocity=88 time=0
note_on channel=0 note=66 velocity=96 time=0
note_off channel=0 note=40 velocity=0 time=50
note_off channel=0 note=52 velocity=0 time=0
note_off channel=0 note=57 velocity=0 time=50
note_off channel=0 note=60 velocity=0 time=0
note_off channel=0 note=66 velocity=0 time=12
note_on channel=0 note=40 velocity=88 time=88
note_on channel=0 note=52 velocity=88 time=0
note_on channel=0 note=59 velocity=88 time=100
note_on channel=0 note=64 velocity=88 time=0
note_on channel=0 note=67 velocity=96 time=0
note_off channel=0 note=40 velocity=0 time=50
note_off channel=0 note=52 velocity=0 time=0
note_off channel=0 note=59 velocity=0 time=50
note_off channel=0 note=64 velocity=0 time=0
note_off channel=0 note=67 velocity=0 time=12
note_on channel=0 note=40 velocity=88 time=88
note_on channel=0 note=52 velocity=88 time=0
note_on channel=0 note=60 velocity=88 time=100
note_on channel=0 note=64 velocity=88 time=0
note_on channel=0 note=69 velocity=96 time=0
note_off channel=0 note=40 velocity=0 time=50
note_off channel=0 note=52 velocity=0 time=0
note_off channel=0 note=60 velocity=0 time=50
note_off channel=0 note=64 velocity=0 time=0
note_off channel=0 note=69 velocity=0 time=12
note_on channel=0 note=40 velocity=88 time=88
note_on channel=0 note=52 velocity=88 time=0
note_on channel=0 note=61 velocity=88 time=100
note_on channel=0 note=64 velocity=88 time=0
note_on channel=0 note=70 velocity=96 time=0
note_off channel=0 note=40 velocity=0 time=50
note_off channel=0 note=52 velocity=0 time=0
note_off channel=0 note=61 velocity=0 time=50
note_off channel=0 note=64 velocity=0 time=0
note_off channel=0 note=70 velocity=0 time=12
note_on channel=0 note=40 velocity=88 time=88
note_on channel=0 note=52 velocity=88 time=0
note_on channel=0 note=64 velocity=81 time=100
note_on channel=0 note=67 velocity=81 time=0
note_on channel=0 note=71 velocity=88 time=0
note_off channel=0 note=40 velocity=0 time=50
note_off channel=0 note=52 velocity=0 time=0
note_off channel=0 note=64 velocity=0 time=50
note_off channel=0 note=67 velocity=0 time=0
note_off channel=0 note=71 velocity=0 time=12
note_on channel=0 note=47 velocity=84 time=88
note_on channel=0 note=51 velocity=72 time=100
note_on channel=0 note=53 velocity=72 time=0
note_on channel=0 note=57 velocity=72 time=0
note_on channel=0 note=59 velocity=78 time=0
note_off channel=0 note=47 velocity=0 time=50
note_off channel=0 note=51 velocity=0 time=50
note_off channel=0 note=53 velocity=0 time=0
note_off channel=0 note=57 velocity=0 time=0
note_off channel=0 note=59 velocity=0 time=10
note_on channel=0 note=40 velocity=74 time=90
note_on channel=0 note=52 velocity=74 time=0
note_on channel=0 note=56 velocity=58 time=100
note_on channel=0 note=59 velocity=58 time=0
note_on channel=0 note=64 velocity=58 time=0
note_on channel=0 note=76 velocity=80 time=0
note_off channel=0 note=40 velocity=0 time=50
note_off channel=0 note=52 velocity=0 time=0
note_off channel=0 note=56 velocity=0 time=50
note_off channel=0 note=59 velocity=0 time=0
note_off channel=0 note=64 velocity=0 time=0
note_on channel=0 note=74 velocity=75 time=0
note_off channel=0 note=76 velocity=0 time=0
note_on channel=0 note=73 velocity=69 time=100
note_off channel=0 note=74 velocity=0 time=0
note_on channel=0 note=45 velocity=57 time=100
note_on channel=0 note=49 velocity=57 time=0
note_on channel=0 note=52 velocity=57 time=0
note_on channel=0 note=69 velocity=66 time=0
note_off channel=0 note=73 velocity=0 time=0
note_off channel=0 note=45 velocity=0 time=88
note_off channel=0 note=49 velocity=0 time=0
note_off channel=0 note=52 velocity=0 time=0
note_off channel=0 note=69 velocity=0 time=12
note_on channel=0 note=71 velocity=66 time=0
note_off channel=0 note=71 velocity=0 time=100
note_on channel=0 note=72 velocity=66 time=0
note_on channel=0 note=45 velocity=57 time=100
note_on channel=0 note=48 velocity=57 time=0
note_on channel=0 note=52 velocity=57 time=0
note_on channel=0 note=54 velocity=57 time=0
note_on channel=0 note=71 velocity=83 time=0
note_off channel=0 note=72 velocity=0 time=0
note_on channel=0 note=74 velocity=91 time=0
note_off channel=0 note=45 velocity=0 time=88
note_off channel=0 note=48 velocity=0 time=0
note_off channel=0 note=52 velocity=0 time=0
note_off channel=0 note=54 velocity=0 time=0
note_on channel=0 note=69 velocity=76 time=12
note_off channel=0 note=71 velocity=0 time=0
note_on channel=0 note=72 velocity=84 time=0
note_off channel=0 note=74 velocity=0 time=0
note_on channel=0 note=67 velocity=64 time=100
note_off channel=0 note=69 velocity=0 time=0
note_on channel=0 note=71 velocity=70 time=0
note_off channel=0 note=72 velocity=0 time=0
note_on channel=0 note=52 velocity=70 time=100
note_on channel=0 note=55 velocity=70 time=0
note_on channel=0 note=59 velocity=70 time=0
note_off channel=0 note=67 velocity=0 time=0
note_off channel=0 note=71 velocity=0 time=0
note_on channel=0 note=78 velocity=80 time=0
note_on channel=0 note=81 velocity=88 time=0
note_off channel=0 note=52 velocity=0 time=100
note_off channel=0 note=55 velocity=0 time=0
note_on channel=0 note=57 velocity=70 time=0
note_off channel=0 note=59 velocity=0 time=0
note_on channel=0 note=61 velocity=70 time=0
note_on channel=0 note=76 velocity=73 time=0
note_off channel=0 note=78 velocity=0 time=0
note_on channel=0 note=79 velocity=80 time=0
note_off channel=0 note=81 velocity=0 time=0
note_on channel=0 note=50 velocity=70 time=100
note_on channel=0 note=54 velocity=70 time=0
note_off channel=0 note=61 velocity=0 time=0
note_on channel=0 note=74 velocity=67 time=0
note_off channel=0 note=76 velocity=0 time=0
note_on channel=0 note=78 velocity=74 time=0
note_off channel=0 note=79 velocity=0 time=0
note_on channel=0 note=38 velocity=70 time=100
note_off channel=0 note=54 velocity=0 time=0
note_off channel=0 note=57 velocity=0 time=0
note_on channel=0 note=66 velocity=67 time=0
note_on channel=0 note=69 velocity=67 time=0
note_off channel=0 note=74 velocity=0 time=0
note_on channel=0 note=74 velocity=74 time=0
note_off channel=0 note=78 velocity=0 time=0
note_off channel=0 note=38 velocity=0 time=100
note_off channel=0 note=50 velocity=0 time=0
note_on channel=0 note=64 velocity=70 time=0
note_off channel=0 note=66 velocity=0 time=0
note_on channel=0 note=67 velocity=70 time=0
note_off channel=0 note=69 velocity=0 time=0
note_off channel=0 note=74 velocity=0 time=0
note_on channel=0 note=76 velocity=77 time=0
note_on channel=0 note=62 velocity=70 time=100
note_off channel=0 note=64 velocity=0 time=0
note_off channel=0 note=67 velocity=0 time=0
note_on channel=0 note=69 velocity=70 time=0
note_off channel=0 note=76 velocity=0 time=0
note_on channel=0 note=78 velocity=77 time=0
note_on channel=0 note=48 velocity=70 time=100
note_on channel=0 note=58 velocity=70 time=0
note_off channel=0 note=62 velocity=0 time=0
note_on channel=0 note=64 velocity=70 time=0
note_off channel=0 note=69 velocity=0 time=0
note_on channel=0 note=70 velocity=70 time=0
note_off channel=0 note=78 velocity=0 time=0
note_on channel=0 note=79 velocity=70 time=0
note_off channel=0 note=48 velocity=0 time=100
note_off channel=0 note=58 velocity=0 time=0
note_off channel=0 note=64 velocity=0 time=0
note_on channel=0 note=66 velocity=70 time=0
note_on channel=0 note=78 velocity=70 time=0
note_off channel=0 note=79 velocity=0 time=0
note_off channel=0 note=66 velocity=0 time=100
note_on channel=0 note=67 velocity=70 time=0
note_on channel=0 note=76 velocity=70 time=0
note_off channel=0 note=78 velocity=0 time=0
note_on channel=0 note=47 velocity=70 time=100
note_on channel=0 note=52 velocity=70 time=0
note_on channel=0 note=55 velocity=70 time=0
note_on channel=0 note=59 velocity=70 time=0
note_on channel=0 note=64 velocity=70 time=0
note_off channel=0 note=70 velocity=0 time=0
note_off channel=0 note=76 velocity=0 time=0
note_off channel=0 note=47 velocity=0 time=100
note_off channel=0 note=52 velocity=0 time=0
note_off channel=0 note=55 velocity=0 time=0
note_on channel=0 note=57 velocity=70 time=0
note_off channel=0 note=59 velocity=0 time=0
note_off channel=0 note=64 velocity=0 time=0
note_on channel=0 note=66 velocity=70 time=0
note_off channel=0 note=67 velocity=0 time=0
note_on channel=0 note=69 velocity=70 time=0
note_on channel=0 note=55 velocity=70 time=100
note_off channel=0 note=57 velocity=0 time=0
note_off channel=0 note=66 velocity=0 time=0
note_on channel=0 note=67 velocity=70 time=0
note_off channel=0 note=69 velocity=0 time=0
note_on channel=0 note=71 velocity=70 time=0
note_on channel=0 note=47 velocity=73 time=100
note_on channel=0 note=54 velocity=73 time=0
note_off channel=0 note=55 velocity=0 time=0
note_off channel=0 note=67 velocity=0 time=0
note_on channel=0 note=69 velocity=73 time=0
note_off channel=0 note=71 velocity=0 time=0
note_on channel=0 note=73 velocity=73 time=0
note_off channel=0 note=69 velocity=0 time=100
note_on channel=0 note=71 velocity=76 time=0
note_off channel=0 note=73 velocity=0 time=0
note_on channel=0 note=75 velocity=76 time=0
note_off channel=0 note=47 velocity=0 time=100
note_on channel=0 note=51 velocity=79 time=0
note_off channel=0 note=54 velocity=0 time=0
note_on channel=0 note=59 velocity=79 time=0
note_off channel=0 note=71 velocity=0 time=0
note_on channel=0 note=72 velocity=79 time=0
note_off channel=0 note=75 velocity=0 time=0
note_on channel=0 note=75 velocity=79 time=0
note_on channel=0 note=81 velocity=79 time=0
note_on channel=0 note=40 velocity=82 time=100
note_off channel=0 note=51 velocity=0 time=0
note_on channel=0 note=52 velocity=82 time=0
note_off channel=0 note=59 velocity=0 time=0
note_on channel=0 note=71 velocity=82 time=0
note_off channel=0 note=72 velocity=0 time=0
note_on channel=0 note=73 velocity=82 time=0
note_off channel=0 note=75 velocity=0 time=0
note_on channel=0 note=76 velocity=82 time=0
note_on channel=0 note=79 velocity=82 time=0
note_off channel=0 note=81 velocity=0 time=0
note_off channel=0 note=40 velocity=0 time=65
note_off channel=0 note=52 velocity=0 time=0
note_on channel=0 note=43 velocity=85 time=35
note_on channel=0 note=55 velocity=85 time=0
note_on channel=0 note=69 velocity=85 time=0
note_off channel=0 note=71 velocity=0 time=0
note_off channel=0 note=73 velocity=0 time=0
note_on channel=0 note=75 velocity=85 time=0
note_off channel=0 note=76 velocity=0 time=0
note_on channel=0 note=78 velocity=85 time=0
note_off channel=0 note=79 velocity=0 time=0
note_off channel=0 note=43 velocity=0 time=65
note_off channel=0 note=55 velocity=0 time=0
note_on channel=0 note=36 velocity=88 time=35
note_on channel=0 note=55 velocity=88 time=0
note_on channel=0 note=60 velocity=88 time=0
note_on channel=0 note=64 velocity=96 time=0
note_off channel=0 note=69 velocity=0 time=0
note_off channel=0 note=75 velocity=0 time=0
note_off channel=0 note=78 velocity=0 time=0
note_off channel=0 note=55 velocity=0 time=65
note_off channel=0 note=60 velocity=0 time=0
note_off channel=0 note=64 velocity=0 time=0
note_off channel=0 note=36 velocity=0 time=35
note_on channel=0 note=43 velocity=88 time=0
note_on channel=0 note=54 velocity=88 time=0
note_on channel=0 note=59 velocity=88 time=0
note_on channel=0 note=63 velocity=96 time=0
note_off channel=0 note=43 velocity=0 time=65
note_off channel=0 note=54 velocity=0 time=0
note_off channel=0 note=59 velocity=0 time=0
note_off channel=0 note=63 velocity=0 time=0
note_on channel=0 note=48 velocity=88 time=35
note_on channel=0 note=55 velocity=88 time=0
note_on channel=0 note=60 velocity=96 time=0
note_on channel=0 note=64 velocity=88 time=0
note_off channel=0 note=48 velocity=0 time=65
note_off channel=0 note=55 velocity=0 time=0
note_off channel=0 note=60 velocity=0 time=0
note_off channel=0 note=64 velocity=0 time=0
note_on channel=0 note=47 velocity=90 time=35
note_on channel=0 note=59 velocity=88 time=0
note_on channel=0 note=63 velocity=88 time=0
note_on channel=0 note=66 velocity=96 time=0
note_off channel=0 note=59 velocity=0 time=65
note_off channel=0 note=63 velocity=0 time=0
note_on channel=0 note=42 velocity=88 time=35
note_off channel=0 note=47 velocity=0 time=0
note_on channel=0 note=58 velocity=88 time=0
note_on channel=0 note=61 velocity=88 time=0
note_off channel=0 note=42 velocity=0 time=65
note_off channel=0 note=58 velocity=0 time=0
note_off channel=0 note=61 velocity=0 time=0
note_on channel=0 note=35 velocity=88 time=35
note_on channel=0 note=59 velocity=88 time=0
note_on channel=0 note=63 velocity=88 time=0
note_off channel=0 note=35 velocity=0 time=65
note_off channel=0 note=59 velocity=0 time=0
note_off channel=0 note=63 velocity=0 time=0
note_on channel=0 note=40 velocity=90 time=35
note_on channel=0 note=59 velocity=88 time=0
note_on channel=0 note=64 velocity=88 time=0
note_off channel=0 note=66 velocity=0 time=0
note_on channel=0 note=67 velocity=96 time=0
note_off channel=0 note=59 velocity=0 time=65
note_off channel=0 note=64 velocity=0 time=0
note_off channel=0 note=67 velocity=0 time=0
note_off channel=0 note=40 velocity=0 time=35
note_on channel=0 note=47 velocity=88 time=0
note_on channel=0 note=57 velocity=88 time=0
note_on channel=0 note=63 velocity=88 time=0
note_on channel=0 note=66 velocity=96 time=0
note_off channel=0 note=47 velocity=0 time=65
note_off channel=0 note=57 velocity=0 time=0
note_off channel=0 note=63 velocity=0 time=0
note_off channel=0 note=66 velocity=0 time=0
note_on channel=0 note=52 velocity=88 time=35
note_on channel=0 note=59 velocity=88 time=0
note_on channel=0 note=64 velocity=88 time=0
note_on channel=0 note=67 velocity=96 time=0
note_off channel=0 note=52 velocity=0 time=65
note_off channel=0 note=59 velocity=0 time=0
note_off channel=0 note=64 velocity=0 time=0
note_off channel=0 note=67 velocity=0 time=0
note_on channel=0 note=50 velocity=90 time=35
note_on channel=0 note=62 velocity=88 time=0
note_on channel=0 note=66 velocity=88 time=0
note_on channel=0 note=69 velocity=96 time=0
note_off channel=0 note=62 velocity=0 time=65
note_off channel=0 note=66 velocity=0 time=0
note_on channel=0 note=45 velocity=88 time=35
note_off channel=0 note=50 velocity=0 time=0
note_on channel=0 note=61 velocity=88 time=0
note_on channel=0 note=64 velocity=88 time=0
note_off channel=0 note=45 velocity=0 time=65
note_off channel=0 note=61 velocity=0 time=0
note_off channel=0 note=64 velocity=0 time=0
note_on channel=0 note=38 velocity=88 time=35
note_on channel=0 note=62 velocity=88 time=0
note_on channel=0 note=66 velocity=88 time=0
note_off channel=0 note=38 velocity=0 time=65
note_off channel=0 note=62 velocity=0 time=0
note_off channel=0 note=66 velocity=0 time=0
note_on channel=0 note=42 velocity=90 time=35
note_on channel=0 note=61 velocity=101 time=0
note_on channel=0 note=66 velocity=102 time=0
note_off channel=0 note=69 velocity=0 time=0
note_on channel=0 note=70 velocity=111 time=0
note_off channel=0 note=42 velocity=0 time=100
note_on channel=0 note=47 velocity=88 time=0
note_on channel=0 note=59 velocity=98 time=0
note_off channel=0 note=61 velocity=0 time=0
note_on channel=0 note=62 velocity=99 time=0
note_off channel=0 note=66 velocity=0 time=0
note_on channel=0 note=68 velocity=107 time=0
note_off channel=0 note=70 velocity=0 time=0
note_off channel=0 note=47 velocity=0 time=65
note_on channel=0 note=54 velocity=88 time=35
note_off channel=0 note=59 velocity=0 time=0
note_on channel=0 note=61 velocity=95 time=0
note_off channel=0 note=62 velocity=0 time=0
note_on channel=0 note=66 velocity=96 time=0
note_off channel=0 note=68 velocity=0 time=0
note_on channel=0 note=70 velocity=104 time=0
note_off channel=0 note=54 velocity=0 time=65
note_on channel=0 note=55 velocity=90 time=35
note_off channel=0 note=61 velocity=0 time=0
note_on channel=0 note=64 velocity=101 time=0
note_off channel=0 note=66 velocity=0 time=0
note_on channel=0 note=67 velocity=102 time=0
note_off channel=0 note=70 velocity=0 time=0
note_on channel=0 note=71 velocity=111 time=0
note_on channel=0 note=40 velocity=88 time=100
note_off channel=0 note=55 velocity=0 time=0
note_off channel=0 note=64 velocity=0 time=0
note_on channel=0 note=64 velocity=98 time=0
note_on channel=0 note=66 velocity=99 time=0
note_off channel=0 note=67 velocity=0 time=0
note_on channel=0 note=70 velocity=107 time=0
note_off channel=0 note=71 velocity=0 time=0
note_off channel=0 note=40 velocity=0 time=65
note_on channel=0 note=43 velocity=88 time=35
note_off channel=0 note=64 velocity=0 time=0
note_on channel=0 note=64 velocity=95 time=0
note_off channel=0 note=66 velocity=0 time=0
note_on channel=0 note=67 velocity=96 time=0
note_off channel=0 note=70 velocity=0 time=0
note_on channel=0 note=71 velocity=104 time=0
note_off channel=0 note=43 velocity=0 time=65
note_on channel=0 note=35 velocity=90 time=35
note_off channel=0 note=64 velocity=0 time=0
note_on channel=0 note=66 velocity=101 time=0
note_off channel=0 note=67 velocity=0 time=0
note_on channel=0 note=69 velocity=102 time=0
note_off channel=0 note=71 velocity=0 time=0
note_on channel=0 note=75 velocity=111 time=0
note_off channel=0 note=35 velocity=0 time=100
note_on channel=0 note=42 velocity=88 time=0
note_on channel=0 note=64 velocity=101 time=0
note_off channel=0 note=66 velocity=0 time=0
note_on channel=0 note=73 velocity=111 time=0
note_off channel=0 note=75 velocity=0 time=0
note_off channel=0 note=42 velocity=0 time=65
note_on channel=0 note=47 velocity=88 time=35
note_off channel=0 note=64 velocity=0 time=0
note_on channel=0 note=66 velocity=101 time=0
note_off channel=0 note=73 velocity=0 time=0
note_on channel=0 note=75 velocity=111 time=0
note_off channel=0 note=47 velocity=0 time=65
note_on channel=0 note=40 velocity=95 time=35
note_on channel=0 note=64 velocity=93 time=0
note_off channel=0 note=66 velocity=0 time=0
note_off channel=0 note=69 velocity=0 time=0
note_on channel=0 note=72 velocity=93 time=0
note_off channel=0 note=75 velocity=0 time=0
note_on channel=0 note=76 velocity=93 time=0
note_off channel=0 note=40 velocity=0 time=100
note_on channel=0 note=45 velocity=88 time=0
note_on channel=0 note=71 velocity=88 time=0
note_off channel=0 note=72 velocity=0 time=0
note_on channel=0 note=74 velocity=88 time=0
note_off channel=0 note=45 velocity=0 time=90
note_on channel=0 note=48 velocity=88 time=10
note_on channel=0 note=69 velocity=88 time=0
note_off channel=0 note=71 velocity=0 time=0
note_on channel=0 note=72 velocity=88 time=0
note_off channel=0 note=74 velocity=0 time=0
note_off channel=0 note=48 velocity=0 time=90
note_on channel=0 note=52 velocity=90 time=10
note_on channel=0 note=67 velocity=88 time=0
note_off channel=0 note=69 velocity=0 time=0
note_on channel=0 note=71 velocity=88 time=0
note_off channel=0 note=72 velocity=0 time=0
note_on channel=0 note=40 velocity=64 time=100
note_off channel=0 note=52 velocity=0 time=0
note_off channel=0 note=64 velocity=0 time=0
note_off channel=0 note=67 velocity=0 time=0
note_off channel=0 note=71 velocity=0 time=0
note_off channel=0 note=76 velocity=0 time=0
note_off channel=0 note=40 velocity=0 time=100
<meta message end_of_track time=0>
<meta message track_name name='Kboard 3 (Celesta)' time=0>
<meta message set_tempo tempo=750000 time=0>
program_change channel=0 program=1 time=0
note_on channel=0 note=48 velocity=88 time=0
note_on channel=0 note=60 velocity=88 time=0
note_on channel=0 note=64 velocity=88 time=0
note_on channel=0 note=69 velocity=88 time=0
note_on channel=0 note=76 velocity=95 time=0
note_on channel=0 note=45 velocity=91 time=300
note_off channel=0 note=48 velocity=0 time=0
note_on channel=0 note=57 velocity=91 time=0
note_off channel=0 note=60 velocity=0 time=0
note_off channel=0 note=64 velocity=0 time=0
note_on channel=0 note=66 velocity=91 time=0
note_off channel=0 note=69 velocity=0 time=0
note_on channel=0 note=72 velocity=91 time=0
note_off channel=0 note=76 velocity=0 time=0
note_on channel=0 note=78 velocity=98 time=0
note_on channel=0 note=40 velocity=92 time=300
note_off channel=0 note=45 velocity=0 time=0
note_on channel=0 note=52 velocity=92 time=0
note_off channel=0 note=57 velocity=0 time=0
note_off channel=0 note=66 velocity=0 time=0
note_on channel=0 note=67 velocity=92 time=0
note_on channel=0 note=71 velocity=92 time=0
note_off channel=0 note=72 velocity=0 time=0
note_off channel=0 note=78 velocity=0 time=0
note_on channel=0 note=79 velocity=99 time=0
note_on channel=0 note=36 velocity=95 time=300
note_off channel=0 note=40 velocity=0 time=0
note_on channel=0 note=48 velocity=95 time=0
note_off channel=0 note=52 velocity=0 time=0
note_on channel=0 note=64 velocity=95 time=0
note_off channel=0 note=67 velocity=0 time=0
note_on channel=0 note=69 velocity=95 time=0
note_off channel=0 note=71 velocity=0 time=0
note_on channel=0 note=76 velocity=95 time=0
note_off channel=0 note=79 velocity=0 time=0
note_on channel=0 note=81 velocity=103 time=0
note_on channel=0 note=30 velocity=98 time=300
note_off channel=0 note=36 velocity=0 time=0
note_on channel=0 note=42 velocity=98 time=0
note_off channel=0 note=48 velocity=0 time=0
note_on channel=0 note=54 velocity=98 time=0
note_on channel=0 note=61 velocity=98 time=0
note_off channel=0 note=64 velocity=0 time=0
note_off channel=0 note=69 velocity=0 time=0
note_on channel=0 note=70 velocity=98 time=0
note_on channel=0 note=73 velocity=98 time=0
note_off channel=0 note=76 velocity=0 time=0
note_off channel=0 note=81 velocity=0 time=0
note_on channel=0 note=82 velocity=106 time=0
note_off channel=0 note=30 velocity=0 time=300
note_on channel=0 note=31 velocity=100 time=0
note_off channel=0 note=42 velocity=0 time=0
note_on channel=0 note=43 velocity=100 time=0
note_off channel=0 note=54 velocity=0 time=0
note_on channel=0 note=55 velocity=100 time=0
note_on channel=0 note=59 velocity=100 time=0
note_off channel=0 note=61 velocity=0 time=0
note_off channel=0 note=70 velocity=0 time=0
note_on channel=0 note=71 velocity=100 time=0
note_off channel=0 note=73 velocity=0 time=0
note_off channel=0 note=82 velocity=0 time=0
note_on channel=0 note=83 velocity=108 time=0
note_on channel=0 note=29 velocity=95 time=300
note_off channel=0 note=31 velocity=0 time=0
note_on channel=0 note=41 velocity=95 time=0
note_off channel=0 note=43 velocity=0 time=0
note_on channel=0 note=53 velocity=95 time=0
note_off channel=0 note=55 velocity=0 time=0
note_off channel=0 note=59 velocity=0 time=0
note_on channel=0 note=63 velocity=95 time=0
note_on channel=0 note=69 velocity=95 time=0
note_off channel=0 note=71 velocity=0 time=0
note_on channel=0 note=71 velocity=103 time=0
note_off channel=0 note=83 velocity=0 time=0
note_on channel=0 note=28 velocity=80 time=300
note_off channel=0 note=29 velocity=0 time=0
note_on channel=0 note=40 velocity=80 time=0
note_off channel=0 note=41 velocity=0 time=0
note_on channel=0 note=52 velocity=80 time=0
note_off channel=0 note=53 velocity=0 time=0
note_on channel=0 note=59 velocity=80 time=0
note_off channel=0 note=63 velocity=0 time=0
note_on channel=0 note=68 velocity=80 time=0
note_off channel=0 note=69 velocity=0 time=0
note_off channel=0 note=71 velocity=0 time=0
note_on channel=0 note=71 velocity=80 time=0
note_on channel=0 note=76 velocity=86 time=0
note_off channel=0 note=28 velocity=0 time=270
note_off channel=0 note=40 velocity=0 time=0
note_off channel=0 note=52 velocity=0 time=0
note_off channel=0 note=59 velocity=0 time=0
note_off channel=0 note=68 velocity=0 time=0
note_off channel=0 note=71 velocity=0 time=0
note_off channel=0 note=76 velocity=0 time=0
note_on channel=0 note=76 velocity=80 time=2230
note_on channel=0 note=74 velocity=75 time=100
note_off channel=0 note=76 velocity=0 time=0
note_on channel=0 note=73 velocity=69 time=100
note_off channel=0 note=74 velocity=0 time=0
note_on channel=0 note=69 velocity=66 time=100
note_off channel=0 note=73 velocity=0 time=0
note_off channel=0 note=69 velocity=0 time=100
note_on channel=0 note=71 velocity=66 time=0
note_off channel=0 note=71 velocity=0 time=100
note_on channel=0 note=72 velocity=66 time=0
note_on channel=0 note=71 velocity=62 time=100
note_off channel=0 note=72 velocity=0 time=0
note_on channel=0 note=74 velocity=68 time=0
note_on channel=0 note=83 velocity=62 time=0
note_on channel=0 note=86 velocity=74 time=0
note_on channel=0 note=69 velocity=57 time=100
note_off channel=0 note=71 velocity=0 time=0
note_on channel=0 note=72 velocity=62 time=0
note_off channel=0 note=74 velocity=0 time=0
note_on channel=0 note=81 velocity=57 time=0
note_off channel=0 note=83 velocity=0 time=0
note_on channel=0 note=84 velocity=68 time=0
note_off channel=0 note=86 velocity=0 time=0
note_on channel=0 note=67 velocity=64 time=100
note_off channel=0 note=69 velocity=0 time=0
note_on channel=0 note=71 velocity=64 time=0
note_off channel=0 note=72 velocity=0 time=0
note_on channel=0 note=79 velocity=64 time=0
note_off channel=0 note=81 velocity=0 time=0
note_on channel=0 note=83 velocity=70 time=0
note_off channel=0 note=84 velocity=0 time=0
note_on channel=0 note=55 velocity=66 time=100
note_on channel=0 note=59 velocity=66 time=0
note_off channel=0 note=67 velocity=0 time=0
note_on channel=0 note=67 velocity=75 time=0
note_off channel=0 note=71 velocity=0 time=0
note_on channel=0 note=71 velocity=75 time=0
note_on channel=0 note=78 velocity=75 time=0
note_off channel=0 note=79 velocity=0 time=0
note_on channel=0 note=81 velocity=75 time=0
note_off channel=0 note=83 velocity=0 time=0
note_on channel=0 note=90 velocity=75 time=0
note_on channel=0 note=93 velocity=82 time=0
note_off channel=0 note=55 velocity=0 time=100
note_on channel=0 note=57 velocity=69 time=0
note_off channel=0 note=59 velocity=0 time=0
note_on channel=0 note=61 velocity=69 time=0
note_off channel=0 note=67 velocity=0 time=0
note_on channel=0 note=69 velocity=70 time=0
note_off channel=0 note=71 velocity=0 time=0
note_on channel=0 note=73 velocity=70 time=0
note_on channel=0 note=76 velocity=70 time=0
note_off channel=0 note=78 velocity=0 time=0
note_on channel=0 note=79 velocity=70 time=0
note_off channel=0 note=81 velocity=0 time=0
note_on channel=0 note=88 velocity=76 time=0
note_off channel=0 note=90 velocity=0 time=0
note_on channel=0 note=91 velocity=70 time=0
note_off channel=0 note=93 velocity=0 time=0
note_on channel=0 note=50 velocity=63 time=100
note_off channel=0 note=57 velocity=0 time=0
note_on channel=0 note=57 velocity=63 time=0
note_off channel=0 note=61 velocity=0 time=0
note_on channel=0 note=66 velocity=64 time=0
note_off channel=0 note=69 velocity=0 time=0
note_on channel=0 note=69 velocity=64 time=0
note_off channel=0 note=73 velocity=0 time=0
note_on channel=0 note=74 velocity=64 time=0
note_off channel=0 note=76 velocity=0 time=0
note_on channel=0 note=78 velocity=64 time=0
note_off channel=0 note=79 velocity=0 time=0
note_on channel=0 note=86 velocity=64 time=0
note_off channel=0 note=88 velocity=0 time=0
note_on channel=0 note=90 velocity=69 time=0
note_off channel=0 note=91 velocity=0 time=0
note_off channel=0 note=50 velocity=0 time=100
note_off channel=0 note=57 velocity=0 time=0
note_off channel=0 note=66 velocity=0 time=0
note_on channel=0 note=66 velocity=67 time=0
note_off channel=0 note=69 velocity=0 time=0
note_on channel=0 note=69 velocity=67 time=0
note_off channel=0 note=74 velocity=0 time=0
note_on channel=0 note=74 velocity=67 time=0
note_off channel=0 note=78 velocity=0 time=0
note_on channel=0 note=78 velocity=67 time=0
note_on channel=0 note=81 velocity=67 time=0
note_off channel=0 note=86 velocity=0 time=0
note_on channel=0 note=86 velocity=74 time=0
note_off channel=0 note=90 velocity=0 time=0
note_on channel=0 note=64 velocity=70 time=100
note_off channel=0 note=66 velocity=0 time=0
note_on channel=0 note=67 velocity=70 time=0
note_off channel=0 note=69 velocity=0 time=0
note_off channel=0 note=74 velocity=0 time=0
note_on channel=0 note=76 velocity=70 time=0
note_off channel=0 note=78 velocity=0 time=0
note_on channel=0 note=79 velocity=70 time=0
note_off channel=0 note=81 velocity=0 time=0
note_off channel=0 note=86 velocity=0 time=0
note_on channel=0 note=88 velocity=76 time=0
note_on channel=0 note=62 velocity=70 time=100
note_off channel=0 note=64 velocity=0 time=0
note_on channel=0 note=66 velocity=70 time=0
note_off channel=0 note=67 velocity=0 time=0
note_on channel=0 note=69 velocity=70 time=0
note_on channel=0 note=74 velocity=70 time=0
note_off channel=0 note=76 velocity=0 time=0
note_on channel=0 note=78 velocity=70 time=0
note_off channel=0 note=79 velocity=0 time=0
note_on channel=0 note=81 velocity=70 time=0
note_off channel=0 note=88 velocity=0 time=0
note_on channel=0 note=90 velocity=76 time=0
note_on channel=0 note=60 velocity=70 time=100
note_off channel=0 note=62 velocity=0 time=0
note_on channel=0 note=64 velocity=75 time=0
note_off channel=0 note=66 velocity=0 time=0
note_off channel=0 note=69 velocity=0 time=0
note_on channel=0 note=70 velocity=70 time=0
note_off channel=0 note=74 velocity=0 time=0
note_on channel=0 note=76 velocity=75 time=0
note_off channel=0 note=78 velocity=0 time=0
note_on channel=0 note=79 velocity=75 time=0
note_off channel=0 note=81 velocity=0 time=0
note_on channel=0 note=82 velocity=70 time=0
note_off channel=0 note=90 velocity=0 time=0
note_on channel=0 note=91 velocity=82 time=0
note_off channel=0 note=64 velocity=0 time=100
note_on channel=0 note=66 velocity=70 time=0
note_off channel=0 note=76 velocity=0 time=0
note_on channel=0 note=78 velocity=70 time=0
note_off channel=0 note=79 velocity=0 time=0
note_on channel=0 note=90 velocity=76 time=0
note_off channel=0 note=91 velocity=0 time=0
note_off channel=0 note=66 velocity=0 time=100
note_on channel=0 note=67 velocity=70 time=0
note_on channel=0 note=76 velocity=70 time=0
note_off channel=0 note=78 velocity=0 time=0
note_on channel=0 note=79 velocity=70 time=0
note_on channel=0 note=88 velocity=70 time=0
note_off channel=0 note=90 velocity=0 time=0
note_on channel=0 note=59 velocity=75 time=100
note_off channel=0 note=60 velocity=0 time=0
note_on channel=0 note=64 velocity=69 time=0
note_off channel=0 note=67 velocity=0 time=0
note_on channel=0 note=67 velocity=75 time=0
note_off channel=0 note=70 velocity=0 time=0
note_on channel=0 note=71 velocity=69 time=0
note_off channel=0 note=76 velocity=0 time=0
note_on channel=0 note=76 velocity=69 time=0
note_off channel=0 note=79 velocity=0 time=0
note_on channel=0 note=79 velocity=77 time=0
note_off channel=0 note=82 velocity=0 time=0
note_off channel=0 note=88 velocity=0 time=0
note_on channel=0 note=57 velocity=70 time=100
note_off channel=0 note=59 velocity=0 time=0
note_off channel=0 note=64 velocity=0 time=0
note_on channel=0 note=66 velocity=70 time=0
note_off channel=0 note=67 velocity=0 time=0
note_on channel=0 note=69 velocity=68 time=0
note_off channel=0 note=71 velocity=0 time=0
note_off channel=0 note=76 velocity=0 time=0
note_on channel=0 note=78 velocity=68 time=0
note_off channel=0 note=79 velocity=0 time=0
note_on channel=0 note=81 velocity=74 time=0
note_on channel=0 note=55 velocity=70 time=100
note_off channel=0 note=57 velocity=0 time=0
note_on channel=0 note=64 velocity=70 time=0
note_off channel=0 note=66 velocity=0 time=0
note_on channel=0 note=67 velocity=71 time=0
note_off channel=0 note=69 velocity=0 time=0
note_on channel=0 note=71 velocity=71 time=0
note_on channel=0 note=76 velocity=71 time=0
note_off channel=0 note=78 velocity=0 time=0
note_on channel=0 note=79 velocity=71 time=0
note_off channel=0 note=81 velocity=0 time=0
note_on channel=0 note=83 velocity=78 time=0
note_on channel=0 note=54 velocity=70 time=100
note_off channel=0 note=55 velocity=0 time=0
note_on channel=0 note=66 velocity=70 time=0
note_off channel=0 note=67 velocity=0 time=0
note_on channel=0 note=69 velocity=74 time=0
note_off channel=0 note=71 velocity=0 time=0
note_on channel=0 note=73 velocity=74 time=0
note_off channel=0 note=79 velocity=0 time=0
note_on channel=0 note=81 velocity=74 time=0
note_off channel=0 note=83 velocity=0 time=0
note_on channel=0 note=85 velocity=81 time=0
note_off channel=0 note=54 velocity=0 time=100
note_on channel=0 note=59 velocity=70 time=0
note_off channel=0 note=64 velocity=0 time=0
note_off channel=0 note=66 velocity=0 time=0
note_on channel=0 note=66 velocity=75 time=0
note_off channel=0 note=69 velocity=0 time=0
note_on channel=0 note=71 velocity=75 time=0
note_off channel=0 note=73 velocity=0 time=0
note_on channel=0 note=75 velocity=75 time=0
note_off channel=0 note=76 velocity=0 time=0
note_on channel=0 note=78 velocity=75 time=0
note_off channel=0 note=81 velocity=0 time=0
note_off channel=0 note=85 velocity=0 time=0
note_on channel=0 note=87 velocity=83 time=0
note_off channel=0 note=59 velocity=0 time=100
note_on channel=0 note=59 velocity=74 time=0
note_on channel=0 note=63 velocity=74 time=0
note_off channel=0 note=66 velocity=0 time=0
note_off channel=0 note=71 velocity=0 time=0
note_on channel=0 note=71 velocity=78 time=0
note_on channel=0 note=72 velocity=78 time=0
note_off channel=0 note=75 velocity=0 time=0
note_on channel=0 note=75 velocity=78 time=0
note_off channel=0 note=78 velocity=0 time=0
note_on channel=0 note=81 velocity=78 time=0
note_on channel=0 note=84 velocity=78 time=0
note_off channel=0 note=87 velocity=0 time=0
note_on channel=0 note=93 velocity=86 time=0
note_off channel=0 note=59 velocity=0 time=100
note_on channel=0 note=61 velocity=80 time=0
note_off channel=0 note=63 velocity=0 time=0
note_on channel=0 note=64 velocity=80 time=0
note_off channel=0 note=71 velocity=0 time=0
note_on channel=0 note=71 velocity=82 time=0
note_off channel=0 note=72 velocity=0 time=0
note_on channel=0 note=73 velocity=82 time=0
note_off channel=0 note=75 velocity=0 time=0
note_on channel=0 note=76 velocity=82 time=0
note_on channel=0 note=79 velocity=82 time=0
note_off channel=0 note=81 velocity=0 time=0
note_on channel=0 note=83 velocity=82 time=0
note_off channel=0 note=84 velocity=0 time=0
note_on channel=0 note=91 velocity=89 time=0
note_off channel=0 note=93 velocity=0 time=0
note_on channel=0 note=31 velocity=75 time=100
note_off channel=0 note=61 velocity=0 time=0
note_on channel=0 note=63 velocity=102 time=0
note_off channel=0 note=64 velocity=0 time=0
note_on channel=0 note=66 velocity=102 time=0
note_on channel=0 note=69 velocity=102 time=0
note_off channel=0 note=71 velocity=0 time=0
note_off channel=0 note=73 velocity=0 time=0
note_on channel=0 note=75 velocity=102 time=0
note_off channel=0 note=76 velocity=0 time=0
note_on channel=0 note=78 velocity=102 time=0
note_off channel=0 note=79 velocity=0 time=0
note_on channel=0 note=81 velocity=102 time=0
note_off channel=0 note=83 velocity=0 time=0
note_on channel=0 note=90 velocity=111 time=0
note_off channel=0 note=91 velocity=0 time=0
note_off channel=0 note=31 velocity=0 time=64
note_on channel=0 note=36 velocity=91 time=36
note_on channel=0 note=55 velocity=91 time=0
note_off channel=0 note=63 velocity=0 time=0
note_on channel=0 note=64 velocity=91 time=0
note_off channel=0 note=66 velocity=0 time=0
note_on channel=0 note=67 velocity=91 time=0
note_off channel=0 note=69 velocity=0 time=0
note_off channel=0 note=75 velocity=0 time=0
note_on channel=0 note=76 velocity=91 time=0
note_off channel=0 note=78 velocity=0 time=0
note_on channel=0 note=79 velocity=91 time=0
note_off channel=0 note=81 velocity=0 time=0
note_on channel=0 note=88 velocity=107 time=0
note_off channel=0 note=90 velocity=0 time=0
note_off channel=0 note=67 velocity=0 time=16
note_off channel=0 note=55 velocity=0 time=16
note_off channel=0 note=76 velocity=0 time=0
note_off channel=0 note=79 velocity=0 time=16
note_off channel=0 note=36 velocity=0 time=16
note_off channel=0 note=64 velocity=0 time=0
note_off channel=0 note=88 velocity=0 time=0
note_on channel=0 note=43 velocity=88 time=36
note_on channel=0 note=54 velocity=88 time=0
note_on channel=0 note=63 velocity=88 time=0
note_on channel=0 note=66 velocity=88 time=0
note_on channel=0 note=71 velocity=88 time=0
note_on channel=0 note=75 velocity=88 time=0
note_on channel=0 note=83 velocity=88 time=0
note_on channel=0 note=87 velocity=96 time=0
note_off channel=0 note=66 velocity=0 time=16
note_off channel=0 note=71 velocity=0 time=12
note_off channel=0 note=54 velocity=0 time=4
note_off channel=0 note=75 velocity=0 time=8
note_off channel=0 note=83 velocity=0 time=12
note_off channel=0 note=63 velocity=0 time=12
note_off channel=0 note=87 velocity=0 time=0
note_off channel=0 note=43 velocity=0 time=36
note_on channel=0 note=48 velocity=88 time=0
note_on channel=0 note=55 velocity=88 time=0
note_on channel=0 note=64 velocity=88 time=0
note_on channel=0 note=67 velocity=88 time=0
note_on channel=0 note=72 velocity=88 time=0
note_on channel=0 note=76 velocity=88 time=0
note_on channel=0 note=84 velocity=88 time=0
note_on channel=0 note=88 velocity=96 time=0
note_off channel=0 note=67 velocity=0 time=16
note_off channel=0 note=72 velocity=0 time=12
note_off channel=0 note=55 velocity=0 time=4
note_off channel=0 note=76 velocity=0 time=8
note_off channel=0 note=84 velocity=0 time=12
note_off channel=0 note=64 velocity=0 time=12
note_off channel=0 note=88 velocity=0 time=0
note_on channel=0 note=47 velocity=91 time=36
note_off channel=0 note=48 velocity=0 time=0
note_on channel=0 note=59 velocity=91 time=0
note_on channel=0 note=63 velocity=91 time=0
note_on channel=0 note=71 velocity=91 time=0
note_on channel=0 note=75 velocity=91 time=0
note_on channel=0 note=78 velocity=91 time=0
note_on channel=0 note=87 velocity=91 time=0
note_on channel=0 note=90 velocity=107 time=0
note_off channel=0 note=47 velocity=0 time=22
note_off channel=0 note=59 velocity=0 time=21
note_off channel=0 note=63 velocity=0 time=21
note_on channel=0 note=42 velocity=88 time=36
note_on channel=0 note=58 velocity=88 time=0
note_on channel=0 note=61 velocity=88 time=0
note_on channel=0 note=70 velocity=88 time=0
note_off channel=0 note=71 velocity=0 time=0
note_on channel=0 note=73 velocity=88 time=0
note_off channel=0 note=75 velocity=0 time=0
note_on channel=0 note=85 velocity=88 time=0
note_off channel=0 note=87 velocity=0 time=0
note_off channel=0 note=42 velocity=0 time=22
note_off channel=0 note=85 velocity=0 time=19
note_off channel=0 note=58 velocity=0 time=2
note_off channel=0 note=61 velocity=0 time=21
note_on channel=0 note=35 velocity=88 time=36
note_on channel=0 note=59 velocity=88 time=0
note_on channel=0 note=63 velocity=88 time=0
note_off channel=0 note=70 velocity=0 time=0
note_on channel=0 note=71 velocity=88 time=0
note_off channel=0 note=73 velocity=0 time=0
note_on channel=0 note=75 velocity=88 time=0
note_on channel=0 note=87 velocity=88 time=0
note_off channel=0 note=35 velocity=0 time=22
note_off channel=0 note=87 velocity=0 time=19
note_off channel=0 note=59 velocity=0 time=2
note_off channel=0 note=63 velocity=0 time=21
note_on channel=0 note=40 velocity=91 time=36
note_on channel=0 note=59 velocity=91 time=0
note_on channel=0 note=67 velocity=91 time=0
note_off channel=0 note=71 velocity=0 time=0
note_on channel=0 note=71 velocity=91 time=0
note_off channel=0 note=75 velocity=0 time=0
note_on channel=0 note=76 velocity=91 time=0
note_off channel=0 note=78 velocity=0 time=0
note_on channel=0 note=79 velocity=91 time=0
note_on channel=0 note=88 velocity=91 time=0
note_off channel=0 note=90 velocity=0 time=0
note_on channel=0 note=91 velocity=107 time=0
note_off channel=0 note=71 velocity=0 time=3
note_off channel=0 note=76 velocity=0 time=5
note_off channel=0 note=79 velocity=0 time=8
note_off channel=0 note=40 velocity=0 time=6
note_off channel=0 note=88 velocity=0 time=5
note_off channel=0 note=91 velocity=0 time=14
note_off channel=0 note=59 velocity=0 time=2
note_off channel=0 note=67 velocity=0 time=21
note_on channel=0 note=47 velocity=88 time=36
note_on channel=0 note=57 velocity=88 time=0
note_on channel=0 note=66 velocity=88 time=0
note_on channel=0 note=69 velocity=88 time=0
note_on channel=0 note=75 velocity=88 time=0
note_on channel=0 note=78 velocity=88 time=0
note_on channel=0 note=87 velocity=88 time=0
note_on channel=0 note=90 velocity=96 time=0
note_off channel=0 note=69 velocity=0 time=3
note_off channel=0 note=75 velocity=0 time=5
note_off channel=0 note=78 velocity=0 time=8
note_off channel=0 note=47 velocity=0 time=6
note_off channel=0 note=87 velocity=0 time=5
note_off channel=0 note=90 velocity=0 time=14
note_off channel=0 note=57 velocity=0 time=2
note_off channel=0 note=66 velocity=0 time=21
note_on channel=0 note=52 velocity=88 time=36
note_on channel=0 note=59 velocity=88 time=0
note_on channel=0 note=67 velocity=88 time=0
note_on channel=0 note=71 velocity=88 time=0
note_on channel=0 note=76 velocity=88 time=0
note_on channel=0 note=79 velocity=88 time=0
note_on channel=0 note=88 velocity=88 time=0
note_on channel=0 note=91 velocity=96 time=0
note_off channel=0 note=71 velocity=0 time=3
note_off channel=0 note=76 velocity=0 time=5
note_off channel=0 note=79 velocity=0 time=8
note_off channel=0 note=52 velocity=0 time=6
note_off channel=0 note=88 velocity=0 time=5
note_off channel=0 note=91 velocity=0 time=14
note_off channel=0 note=59 velocity=0 time=2
note_off channel=0 note=67 velocity=0 time=21
note_on channel=0 note=50 velocity=91 time=36
note_on channel=0 note=62 velocity=91 time=0
note_on channel=0 note=66 velocity=91 time=0
note_on channel=0 note=74 velocity=91 time=0
note_on channel=0 note=78 velocity=91 time=0
note_on channel=0 note=81 velocity=91 time=0
note_on channel=0 note=90 velocity=91 time=0
note_on channel=0 note=93 velocity=107 time=0
note_off channel=0 note=50 velocity=0 time=22
note_off channel=0 note=62 velocity=0 time=21
note_off channel=0 note=66 velocity=0 time=21
note_on channel=0 note=45 velocity=88 time=36
note_on channel=0 note=61 velocity=88 time=0
note_on channel=0 note=64 velocity=88 time=0
note_on channel=0 note=73 velocity=88 time=0
note_off channel=0 note=74 velocity=0 time=0
note_on channel=0 note=76 velocity=88 time=0
note_off channel=0 note=78 velocity=0 time=0
note_on channel=0 note=88 velocity=88 time=0
note_off channel=0 note=90 velocity=0 time=0
note_off channel=0 note=45 velocity=0 time=22
note_off channel=0 note=88 velocity=0 time=19
note_off channel=0 note=61 velocity=0 time=2
note_off channel=0 note=64 velocity=0 time=21
note_on channel=0 note=38 velocity=88 time=36
note_on channel=0 note=62 velocity=88 time=0
note_on channel=0 note=66 velocity=88 time=0
note_off channel=0 note=73 velocity=0 time=0
note_on channel=0 note=74 velocity=88 time=0
note_off channel=0 note=76 velocity=0 time=0
note_on channel=0 note=78 velocity=88 time=0
note_on channel=0 note=90 velocity=88 time=0
note_off channel=0 note=38 velocity=0 time=22
note_off channel=0 note=90 velocity=0 time=19
note_off channel=0 note=62 velocity=0 time=2
note_off channel=0 note=66 velocity=0 time=21
note_on channel=0 note=30 velocity=104 time=36
note_on channel=0 note=58 velocity=106 time=0
note_on channel=0 note=61 velocity=108 time=0
note_on channel=0 note=73 velocity=105 time=0
note_off channel=0 note=74 velocity=0 time=0
note_off channel=0 note=78 velocity=0 time=0
note_on channel=0 note=78 velocity=106 time=0
note_off channel=0 note=81 velocity=0 time=0
note_on channel=0 note=82 velocity=107 time=0
note_on channel=0 note=85 velocity=116 time=0
note_off channel=0 note=93 velocity=0 time=0
note_off channel=0 note=30 velocity=0 time=75
note_off channel=0 note=58 velocity=0 time=0
note_off channel=0 note=61 velocity=0 time=0
note_off channel=0 note=73 velocity=0 time=0
note_off channel=0 note=78 velocity=0 time=0
note_off channel=0 note=82 velocity=0 time=0
note_off channel=0 note=85 velocity=0 time=0
note_on channel=0 note=35 velocity=101 time=25
note_on channel=0 note=56 velocity=103 time=0
note_on channel=0 note=59 velocity=105 time=0
note_on channel=0 note=71 velocity=102 time=0
note_on channel=0 note=74 velocity=103 time=0
note_on channel=0 note=80 velocity=104 time=0
note_on channel=0 note=83 velocity=113 time=0
note_off channel=0 note=35 velocity=0 time=75
note_off channel=0 note=56 velocity=0 time=0
note_off channel=0 note=59 velocity=0 time=0
note_off channel=0 note=71 velocity=0 time=0
note_off channel=0 note=74 velocity=0 time=0
note_off channel=0 note=80 velocity=0 time=0
note_off channel=0 note=83 velocity=0 time=0
note_on channel=0 note=42 velocity=101 time=25
note_on channel=0 note=58 velocity=103 time=0
note_on channel=0 note=61 velocity=105 time=0
note_on channel=0 note=73 velocity=102 time=0
note_on channel=0 note=78 velocity=103 time=0
note_on channel=0 note=82 velocity=104 time=0
note_on channel=0 note=85 velocity=113 time=0
note_off channel=0 note=42 velocity=0 time=75
note_off channel=0 note=58 velocity=0 time=0
note_off channel=0 note=61 velocity=0 time=0
note_off channel=0 note=73 velocity=0 time=0
note_off channel=0 note=78 velocity=0 time=0
note_off channel=0 note=82 velocity=0 time=0
note_off channel=0 note=85 velocity=0 time=0
note_on channel=0 note=31 velocity=104 time=25
note_on channel=0 note=59 velocity=106 time=0
note_on channel=0 note=64 velocity=108 time=0
note_on channel=0 note=71 velocity=105 time=0
note_on channel=0 note=76 velocity=106 time=0
note_on channel=0 note=83 velocity=107 time=0
note_on channel=0 note=88 velocity=116 time=0
note_off channel=0 note=31 velocity=0 time=75
note_off channel=0 note=59 velocity=0 time=0
note_off channel=0 note=64 velocity=0 time=0
note_off channel=0 note=71 velocity=0 time=0
note_off channel=0 note=76 velocity=0 time=0
note_off channel=0 note=83 velocity=0 time=0
note_off channel=0 note=88 velocity=0 time=0
note_on channel=0 note=40 velocity=101 time=25
note_on channel=0 note=58 velocity=103 time=0
note_on channel=0 note=66 velocity=105 time=0
note_on channel=0 note=70 velocity=102 time=0
note_on channel=0 note=78 velocity=103 time=0
note_on channel=0 note=82 velocity=104 time=0
note_on channel=0 note=90 velocity=113 time=0
note_off channel=0 note=40 velocity=0 time=75
note_off channel=0 note=58 velocity=0 time=0
note_off channel=0 note=66 velocity=0 time=0
note_off channel=0 note=70 velocity=0 time=0
note_off channel=0 note=78 velocity=0 time=0
note_off channel=0 note=82 velocity=0 time=0
note_off channel=0 note=90 velocity=0 time=0
note_on channel=0 note=43 velocity=101 time=25
note_on channel=0 note=59 velocity=103 time=0
note_on channel=0 note=67 velocity=105 time=0
note_on channel=0 note=71 velocity=101 time=0
note_on channel=0 note=76 velocity=102 time=0
note_on channel=0 note=79 velocity=103 time=0
note_on channel=0 note=83 velocity=104 time=0
note_on channel=0 note=91 velocity=113 time=0
note_off channel=0 note=43 velocity=0 time=75
note_off channel=0 note=59 velocity=0 time=0
note_off channel=0 note=67 velocity=0 time=0
note_off channel=0 note=71 velocity=0 time=0
note_off channel=0 note=76 velocity=0 time=0
note_off channel=0 note=79 velocity=0 time=0
note_off channel=0 note=83 velocity=0 time=0
note_off channel=0 note=91 velocity=0 time=0
note_on channel=0 note=35 velocity=104 time=25
note_on channel=0 note=63 velocity=106 time=0
note_on channel=0 note=66 velocity=108 time=0
note_on channel=0 note=75 velocity=105 time=0
note_on channel=0 note=78 velocity=106 time=0
note_on channel=0 note=81 velocity=107 time=0
note_on channel=0 note=87 velocity=116 time=0
note_off channel=0 note=35 velocity=0 time=75
note_off channel=0 note=63 velocity=0 time=0
note_off channel=0 note=66 velocity=0 time=0
note_off channel=0 note=75 velocity=0 time=0
note_off channel=0 note=78 velocity=0 time=0
note_off channel=0 note=81 velocity=0 time=0
note_off channel=0 note=87 velocity=0 time=0
note_on channel=0 note=42 velocity=101 time=25
note_on channel=0 note=61 velocity=103 time=0
note_on channel=0 note=64 velocity=105 time=0
note_on channel=0 note=73 velocity=102 time=0
note_on channel=0 note=76 velocity=103 time=0
note_on channel=0 note=81 velocity=104 time=0
note_on channel=0 note=85 velocity=113 time=0
note_off channel=0 note=42 velocity=0 time=75
note_off channel=0 note=61 velocity=0 time=0
note_off channel=0 note=64 velocity=0 time=0
note_off channel=0 note=73 velocity=0 time=0
note_off channel=0 note=76 velocity=0 time=0
note_off channel=0 note=81 velocity=0 time=0
note_off channel=0 note=85 velocity=0 time=0
note_on channel=0 note=47 velocity=101 time=25
note_on channel=0 note=63 velocity=103 time=0
note_on channel=0 note=66 velocity=105 time=0
note_on channel=0 note=75 velocity=102 time=0
note_on channel=0 note=78 velocity=103 time=0
note_on channel=0 note=81 velocity=104 time=0
note_on channel=0 note=87 velocity=113 time=0
note_off channel=0 note=47 velocity=0 time=75
note_off channel=0 note=63 velocity=0 time=0
note_off channel=0 note=66 velocity=0 time=0
note_off channel=0 note=75 velocity=0 time=0
note_off channel=0 note=78 velocity=0 time=0
note_off channel=0 note=81 velocity=0 time=0
note_off channel=0 note=87 velocity=0 time=0
note_on channel=0 note=40 velocity=101 time=25
note_on channel=0 note=60 velocity=101 time=0
note_on channel=0 note=64 velocity=101 time=0
note_on channel=0 note=76 velocity=101 time=0
note_on channel=0 note=88 velocity=110 time=0
note_on channel=0 note=98 velocity=101 time=0
note_off channel=0 note=40 velocity=0 time=100
note_on channel=0 note=45 velocity=99 time=0
note_on channel=0 note=59 velocity=99 time=0
note_off channel=0 note=60 velocity=0 time=0
note_on channel=0 note=62 velocity=99 time=0
note_off channel=0 note=64 velocity=0 time=0
note_on channel=0 note=74 velocity=99 time=0
note_on channel=0 note=83 velocity=99 time=0
note_on channel=0 note=86 velocity=99 time=0
note_off channel=0 note=98 velocity=0 time=0
note_off channel=0 note=45 velocity=0 time=100
note_on channel=0 note=48 velocity=96 time=0
note_on channel=0 note=57 velocity=96 time=0
note_off channel=0 note=59 velocity=0 time=0
note_on channel=0 note=60 velocity=96 time=0
note_off channel=0 note=62 velocity=0 time=0
note_on channel=0 note=72 velocity=96 time=0
note_off channel=0 note=74 velocity=0 time=0
note_on channel=0 note=81 velocity=96 time=0
note_off channel=0 note=83 velocity=0 time=0
note_on channel=0 note=84 velocity=96 time=0
note_off channel=0 note=86 velocity=0 time=0
note_off channel=0 note=48 velocity=0 time=100
note_on channel=0 note=52 velocity=95 time=0
note_on channel=0 note=55 velocity=95 time=0
note_off channel=0 note=57 velocity=0 time=0
note_on channel=0 note=59 velocity=95 time=0
note_off channel=0 note=60 velocity=0 time=0
note_on channel=0 note=71 velocity=95 time=0
note_off channel=0 note=72 velocity=0 time=0
note_on channel=0 note=79 velocity=95 time=0
note_off channel=0 note=81 velocity=0 time=0
note_on channel=0 note=83 velocity=95 time=0
note_off channel=0 note=84 velocity=0 time=0
note_on channel=0 note=40 velocity=82 time=100
note_off channel=0 note=52 velocity=0 time=0
note_off channel=0 note=55 velocity=0 time=0
note_off channel=0 note=59 velocity=0 time=0
note_off channel=0 note=71 velocity=0 time=0
note_off channel=0 note=76 velocity=0 time=0
note_off channel=0 note=79 velocity=0 time=0
note_off channel=0 note=83 velocity=0 time=0
note_off channel=0 note=88 velocity=0 time=0
note_off channel=0 note=40 velocity=0 time=200
<meta message end_of_track time=0>
<meta message track_name name='Kboard 4' time=0>
<meta message set_tempo tempo=750000 time=0>
program_change channel=0 program=1 time=0
note_on channel=0 note=60 velocity=88 time=0
note_on channel=0 note=64 velocity=88 time=0
note_on channel=0 note=69 velocity=88 time=0
note_on channel=0 note=57 velocity=91 time=300
note_off channel=0 note=60 velocity=0 time=0
note_on channel=0 note=60 velocity=91 time=0
note_off channel=0 note=64 velocity=0 time=0
note_on channel=0 note=66 velocity=91 time=0
note_off channel=0 note=69 velocity=0 time=0
note_on channel=0 note=52 velocity=92 time=300
note_off channel=0 note=57 velocity=0 time=0
note_on channel=0 note=59 velocity=92 time=0
note_off channel=0 note=60 velocity=0 time=0
note_on channel=0 note=64 velocity=92 time=0
note_off channel=0 note=66 velocity=0 time=0
note_on channel=0 note=67 velocity=92 time=0
note_on channel=0 note=48 velocity=95 time=300
note_off channel=0 note=52 velocity=0 time=0
note_off channel=0 note=59 velocity=0 time=0
note_on channel=0 note=60 velocity=95 time=0
note_off channel=0 note=64 velocity=0 time=0
note_on channel=0 note=64 velocity=95 time=0
note_off channel=0 note=67 velocity=0 time=0
note_on channel=0 note=69 velocity=95 time=0
note_on channel=0 note=42 velocity=98 time=300
note_off channel=0 note=48 velocity=0 time=0
note_on channel=0 note=52 velocity=98 time=0
note_on channel=0 note=58 velocity=98 time=0
note_off channel=0 note=60 velocity=0 time=0
note_on channel=0 note=61 velocity=98 time=0
note_off channel=0 note=64 velocity=0 time=0
note_on channel=0 note=64 velocity=98 time=0
note_off channel=0 note=69 velocity=0 time=0
note_on channel=0 note=70 velocity=98 time=0
note_on channel=0 note=76 velocity=98 time=0
note_off channel=0 note=42 velocity=0 time=300
note_on channel=0 note=43 velocity=100 time=0
note_off channel=0 note=58 velocity=0 time=0
note_on channel=0 note=59 velocity=100 time=0
note_off channel=0 note=61 velocity=0 time=0
note_off channel=0 note=70 velocity=0 time=0
note_on channel=0 note=71 velocity=100 time=0
note_on channel=0 note=41 velocity=95 time=300
note_off channel=0 note=43 velocity=0 time=0
note_on channel=0 note=47 velocity=95 time=0
note_off channel=0 note=52 velocity=0 time=0
note_on channel=0 note=57 velocity=95 time=0
note_off channel=0 note=59 velocity=0 time=0
note_on channel=0 note=59 velocity=95 time=0
note_on channel=0 note=63 velocity=95 time=0
note_off channel=0 note=64 velocity=0 time=0
note_off channel=0 note=71 velocity=0 time=0
note_on channel=0 note=71 velocity=95 time=0
note_off channel=0 note=76 velocity=0 time=0
note_on channel=0 note=40 velocity=80 time=300
note_off channel=0 note=41 velocity=0 time=0
note_off channel=0 note=47 velocity=0 time=0
note_on channel=0 note=52 velocity=80 time=0
note_on channel=0 note=56 velocity=80 time=0
note_off channel=0 note=57 velocity=0 time=0
note_off channel=0 note=59 velocity=0 time=0
note_off channel=0 note=63 velocity=0 time=0
note_on channel=0 note=64 velocity=84 time=0
note_off channel=0 note=71 velocity=0 time=0
note_on channel=0 note=76 velocity=84 time=0
note_off channel=0 note=40 velocity=0 time=270
note_off channel=0 note=52 velocity=0 time=0
note_off channel=0 note=56 velocity=0 time=0
note_off channel=0 note=64 velocity=0 time=0
note_off channel=0 note=76 velocity=0 time=0
note_on channel=0 note=40 velocity=88 time=30
note_on channel=0 note=52 velocity=88 time=0
note_on channel=0 note=48 velocity=88 time=100
note_on channel=0 note=57 velocity=88 time=0
note_off channel=0 note=40 velocity=0 time=16
note_off channel=0 note=48 velocity=0 time=6
note_off channel=0 note=52 velocity=0 time=21
note_off channel=0 note=57 velocity=0 time=21
note_on channel=0 note=40 velocity=88 time=136
note_on channel=0 note=52 velocity=88 time=0
note_on channel=0 note=45 velocity=88 time=100
note_on channel=0 note=54 velocity=88 time=0
note_on channel=0 note=60 velocity=88 time=0
note_off channel=0 note=40 velocity=0 time=16
note_off channel=0 note=45 velocity=0 time=6
note_off channel=0 note=52 velocity=0 time=10
note_off channel=0 note=54 velocity=0 time=11
note_off channel=0 note=60 velocity=0 time=21
note_on channel=0 note=40 velocity=88 time=136
note_on channel=0 note=52 velocity=88 time=0
note_on channel=0 note=55 velocity=88 time=100
note_on channel=0 note=59 velocity=88 time=0
note_off channel=0 note=40 velocity=0 time=22
note_off channel=0 note=52 velocity=0 time=10
note_off channel=0 note=55 velocity=0 time=11
note_off channel=0 note=59 velocity=0 time=21
note_on channel=0 note=40 velocity=88 time=136
note_on channel=0 note=52 velocity=88 time=0
note_on channel=0 note=48 velocity=88 time=100
note_off channel=0 note=40 velocity=0 time=16
note_off channel=0 note=48 velocity=0 time=16
note_off channel=0 note=52 velocity=0 time=32
note_on channel=0 note=40 velocity=88 time=136
note_on channel=0 note=52 velocity=88 time=0
note_off channel=0 note=40 velocity=0 time=116
note_off channel=0 note=52 velocity=0 time=16
note_on channel=0 note=40 velocity=88 time=168
note_on channel=0 note=52 velocity=88 time=0
note_off channel=0 note=40 velocity=0 time=116
note_off channel=0 note=52 velocity=0 time=16
note_on channel=0 note=47 velocity=83 time=168
note_on channel=0 note=59 velocity=83 time=0
note_off channel=0 note=47 velocity=0 time=150
note_off channel=0 note=59 velocity=0 time=0
note_on channel=0 note=52 velocity=70 time=150
note_on channel=0 note=64 velocity=70 time=0
note_off channel=0 note=52 velocity=0 time=150
note_off channel=0 note=64 velocity=0 time=0
note_on channel=0 note=40 velocity=64 time=250
note_on channel=0 note=52 velocity=64 time=0
note_off channel=0 note=40 velocity=0 time=10
note_off channel=0 note=52 velocity=0 time=31
note_on channel=0 note=40 velocity=64 time=259
note_on channel=0 note=52 velocity=64 time=0
note_on channel=0 note=54 velocity=64 time=0
note_off channel=0 note=40 velocity=0 time=5
note_off channel=0 note=52 velocity=0 time=13
note_off channel=0 note=54 velocity=0 time=23
note_on channel=0 note=40 velocity=64 time=259
note_on channel=0 note=52 velocity=64 time=0
note_on channel=0 note=55 velocity=64 time=0
note_off channel=0 note=40 velocity=0 time=5
note_off channel=0 note=52 velocity=0 time=13
note_off channel=0 note=55 velocity=0 time=23
note_on channel=0 note=47 velocity=70 time=1159
note_on channel=0 note=59 velocity=70 time=0
note_off channel=0 note=47 velocity=0 time=32
note_off channel=0 note=59 velocity=0 time=32
note_on channel=0 note=52 velocity=79 time=236
note_on channel=0 note=64 velocity=79 time=0
note_off channel=0 note=52 velocity=0 time=10
note_off channel=0 note=64 velocity=0 time=31
note_on channel=0 note=43 velocity=88 time=59
note_on channel=0 note=55 velocity=88 time=0
note_off channel=0 note=43 velocity=0 time=32
note_off channel=0 note=55 velocity=0 time=32
note_on channel=0 note=48 velocity=88 time=36
note_on channel=0 note=52 velocity=88 time=0
note_on channel=0 note=60 velocity=88 time=0
note_on channel=0 note=64 velocity=88 time=0
note_on channel=0 note=76 velocity=88 time=0
note_off channel=0 note=48 velocity=0 time=5
note_off channel=0 note=52 velocity=0 time=13
note_off channel=0 note=64 velocity=0 time=14
note_off channel=0 note=60 velocity=0 time=9
note_off channel=0 note=76 velocity=0 time=23
note_on channel=0 note=59 velocity=88 time=236
note_on channel=0 note=63 velocity=88 time=0
note_on channel=0 note=66 velocity=88 time=0
note_on channel=0 note=71 velocity=88 time=0
note_on channel=0 note=78 velocity=88 time=0
note_off channel=0 note=59 velocity=0 time=5
note_off channel=0 note=63 velocity=0 time=13
note_off channel=0 note=66 velocity=0 time=23
note_on channel=0 note=54 velocity=88 time=59
note_on channel=0 note=58 velocity=88 time=0
note_on channel=0 note=61 velocity=88 time=0
note_off channel=0 note=71 velocity=0 time=0
note_off channel=0 note=54 velocity=0 time=5
note_off channel=0 note=58 velocity=0 time=13
note_off channel=0 note=61 velocity=0 time=23
note_off channel=0 note=78 velocity=0 time=51
note_on channel=0 note=47 velocity=88 time=8
note_on channel=0 note=59 velocity=88 time=0
note_on channel=0 note=63 velocity=88 time=0
note_off channel=0 note=47 velocity=0 time=5
note_off channel=0 note=59 velocity=0 time=13
note_off channel=0 note=63 velocity=0 time=23
note_on channel=0 note=52 velocity=88 time=59
note_on channel=0 note=59 velocity=88 time=0
note_on channel=0 note=64 velocity=88 time=0
note_on channel=0 note=67 velocity=88 time=0
note_on channel=0 note=79 velocity=88 time=0
note_off channel=0 note=64 velocity=0 time=5
note_off channel=0 note=52 velocity=0 time=5
note_off channel=0 note=67 velocity=0 time=8
note_off channel=0 note=59 velocity=0 time=23
note_off channel=0 note=79 velocity=0 time=0
note_on channel=0 note=62 velocity=88 time=259
note_on channel=0 note=66 velocity=88 time=0
note_on channel=0 note=69 velocity=102 time=0
note_on channel=0 note=74 velocity=88 time=0
note_on channel=0 note=81 velocity=105 time=0
note_off channel=0 note=69 velocity=0 time=3
note_off channel=0 note=81 velocity=0 time=2
note_on channel=0 note=57 velocity=88 time=95
note_on channel=0 note=61 velocity=88 time=0
note_off channel=0 note=62 velocity=0 time=0
note_on channel=0 note=64 velocity=88 time=0
note_off channel=0 note=66 velocity=0 time=0
note_off channel=0 note=74 velocity=0 time=0
note_off channel=0 note=57 velocity=0 time=41
note_off channel=0 note=64 velocity=0 time=23
note_on channel=0 note=50 velocity=88 time=36
note_off channel=0 note=61 velocity=0 time=0
note_on channel=0 note=62 velocity=88 time=0
note_on channel=0 note=66 velocity=88 time=0
note_off channel=0 note=50 velocity=0 time=41
note_off channel=0 note=66 velocity=0 time=23
note_on channel=0 note=54 velocity=88 time=36
note_on channel=0 note=61 velocity=88 time=0
note_off channel=0 note=62 velocity=0 time=0
note_on channel=0 note=64 velocity=88 time=0
note_on channel=0 note=70 velocity=88 time=0
note_on channel=0 note=76 velocity=88 time=0
note_off channel=0 note=70 velocity=0 time=10
note_off channel=0 note=76 velocity=0 time=31
note_off channel=0 note=54 velocity=0 time=59
note_off channel=0 note=61 velocity=0 time=0
note_on channel=0 note=62 velocity=105 time=0
note_on channel=0 note=61 velocity=105 time=100
note_off channel=0 note=62 velocity=0 time=0
note_on channel=0 note=43 velocity=88 time=100
note_off channel=0 note=61 velocity=0 time=0
note_on channel=0 note=71 velocity=88 time=0
note_off channel=0 note=71 velocity=0 time=41
note_off channel=0 note=43 velocity=0 time=23
note_on channel=0 note=52 velocity=88 time=36
note_off channel=0 note=52 velocity=0 time=64
note_on channel=0 note=55 velocity=88 time=36
note_off channel=0 note=55 velocity=0 time=64
note_on channel=0 note=57 velocity=88 time=36
note_on channel=0 note=59 velocity=96 time=0
note_off channel=0 note=64 velocity=0 time=0
note_on channel=0 note=69 velocity=88 time=0
note_on channel=0 note=71 velocity=96 time=0
note_off channel=0 note=59 velocity=0 time=32
note_off channel=0 note=57 velocity=0 time=32
note_off channel=0 note=71 velocity=0 time=0
note_on channel=0 note=52 velocity=88 time=236
note_on channel=0 note=57 velocity=88 time=0
note_on channel=0 note=60 velocity=88 time=0
note_on channel=0 note=64 velocity=88 time=0
note_off channel=0 note=69 velocity=0 time=0
note_on channel=0 note=76 velocity=96 time=0
note_off channel=0 note=52 velocity=0 time=100
note_off channel=0 note=57 velocity=0 time=0
note_on channel=0 note=57 velocity=86 time=0
note_on channel=0 note=59 velocity=86 time=0
note_on channel=0 note=62 velocity=86 time=0
note_off channel=0 note=57 velocity=0 time=100
note_on channel=0 note=57 velocity=84 time=0
note_off channel=0 note=59 velocity=0 time=0
note_off channel=0 note=60 velocity=0 time=0
note_on channel=0 note=60 velocity=84 time=0
note_off channel=0 note=62 velocity=0 time=0
note_on channel=0 note=52 velocity=83 time=100
note_on channel=0 note=55 velocity=83 time=0
note_off channel=0 note=57 velocity=0 time=0
note_on channel=0 note=59 velocity=83 time=0
note_off channel=0 note=60 velocity=0 time=0
note_off channel=0 note=55 velocity=0 time=32
note_off channel=0 note=59 velocity=0 time=32
note_off channel=0 note=52 velocity=0 time=36
note_off channel=0 note=64 velocity=0 time=0
note_off channel=0 note=76 velocity=0 time=0
<meta message end_of_track time=0>
